<svg width="299" height="300" viewBox="0 0 299 300" fill="none" xmlns="http://www.w3.org/2000/svg">
<path fill-rule="evenodd" clip-rule="evenodd" d="M149.5 299.939C232.067 299.939 299 233.005 299 150.439C299 67.8722 232.067 0.938721 149.5 0.938721C66.9334 0.938721 0 67.8722 0 150.439C0 233.005 66.9334 299.939 149.5 299.939Z" fill="#F1EFDD"/>
<mask id="mask0_176_11220" style="mask-type:luminance" maskUnits="userSpaceOnUse" x="0" y="0" width="299" height="300">
<path fill-rule="evenodd" clip-rule="evenodd" d="M149.5 299.939C232.067 299.939 299 233.005 299 150.439C299 67.8722 232.067 0.938721 149.5 0.938721C66.9334 0.938721 0 67.8722 0 150.439C0 233.005 66.9334 299.939 149.5 299.939Z" fill="white"/>
</mask>
<g mask="url(#mask0_176_11220)">
<path fill-rule="evenodd" clip-rule="evenodd" d="M2 161.5L304 199L319 238L-26 199L2 161.5Z" fill="#FBFBFB"/>
<path d="M107.36 193.823C121.173 195.519 133.747 185.696 135.443 171.882C137.139 158.068 127.316 145.495 113.502 143.799C99.688 142.103 87.1146 151.926 85.4185 165.74C83.7224 179.554 93.5457 192.127 107.36 193.823Z" fill="#40596B"/>
<path d="M85.7163 165.776C85.6066 166.669 85.4604 167.86 85.6485 168.79L135.077 174.859C135.187 173.966 135.631 172.812 135.741 171.918L85.7163 165.776Z" fill="#334A5E"/>
<path d="M109.078 179.828C115.163 180.575 120.701 176.248 121.448 170.163C122.195 164.079 117.868 158.541 111.783 157.793C105.699 157.046 100.161 161.373 99.4135 167.458C98.6664 173.543 102.993 179.081 109.078 179.828Z" fill="#F2F2F2"/>
<path d="M201.358 161.84L199.164 179.706L95.5425 166.983L101.392 119.34L129.68 122.814C143.675 124.532 153.303 137.2 151.584 151.195L150.67 158.639L162.879 160.138C164.759 152.208 170.328 146.242 177.354 143.175C184.343 140.407 189.128 133.438 188.851 125.848L188.809 123.727L199.231 125.006C202.01 136.833 202.894 149.334 201.358 161.84Z" fill="#FFD15C"/>
<path d="M114.599 134.866C95.8395 132.562 78.789 145.884 76.4856 164.643L144.376 172.979C146.679 154.22 133.358 137.169 114.599 134.866Z" fill="#FF7058"/>
<path d="M114.233 137.843C132.099 140.037 144.71 155.489 144.078 172.942L144.376 172.979C146.679 154.22 133.358 137.169 114.599 134.866C95.8395 132.562 78.789 145.884 76.4856 164.643L76.7834 164.679C80.3927 147.592 96.665 135.686 114.233 137.843Z" fill="#FC6551"/>
<path d="M99.4135 167.458C99.3038 168.351 99.4553 169.579 99.6434 170.509L121.082 173.141C121.49 172.284 121.934 171.13 122.044 170.237L99.4135 167.458Z" fill="#CDD6E0"/>
<path d="M145.221 134.092C146.114 134.202 147.044 134.014 147.64 134.087C143.534 128.142 137.124 123.728 129.68 122.814L101.392 119.341L100.259 128.571L145.221 134.092Z" fill="#F8B64C"/>
<path d="M145.587 131.114L100.029 125.52C97.0513 125.155 94.9616 122.48 95.3273 119.503L95.5466 117.716C95.9122 114.738 98.5868 112.649 101.564 113.014L147.122 118.608C150.1 118.974 152.19 121.648 151.824 124.626L151.605 126.413C151.239 129.39 148.564 131.48 145.587 131.114Z" fill="#FF7058"/>
<path d="M199.759 128.093L198.865 127.984C197.638 128.135 193.062 128.48 188.559 128.23C188.668 127.336 188.741 126.741 188.553 125.811L188.511 123.69L198.933 124.97C199.419 125.936 199.607 126.866 199.759 128.093Z" fill="#F8B64C"/>
<path d="M198.933 124.97C198.933 124.97 182.118 126.532 178.983 122.52C176.893 119.846 178.027 110.615 180.701 108.525C184.713 105.391 200.652 110.975 200.652 110.975L198.933 124.97Z" fill="#40596B"/>
<rect x="200.652" y="110.975" width="3.3" height="14.1" transform="rotate(7 200.652 110.975)" fill="#F8B64C"/>
<path d="M183.366 118.827L174.731 117.766C172.944 117.547 171.936 115.912 172.119 114.423C172.338 112.637 173.973 111.628 175.462 111.811L184.097 112.871C185.884 113.091 186.892 114.726 186.709 116.215C186.49 118.001 185.152 119.046 183.366 118.827Z" fill="#CDD6E0"/>
<path d="M193.413 204.389C202.458 205.499 210.691 199.067 211.801 190.023C212.912 180.978 206.48 172.745 197.435 171.635C188.39 170.524 180.158 176.956 179.047 186.001C177.937 195.046 184.369 203.278 193.413 204.389Z" fill="#40596B"/>
<path d="M197.472 171.337C188.539 170.24 180.181 176.77 179.084 185.703C178.755 188.383 179.021 191.136 179.92 193.664L211.644 186.376C211.367 178.786 205.213 172.288 197.472 171.337Z" fill="#334A5E"/>
<path d="M194.62 194.563C198.238 195.007 201.531 192.434 201.975 188.816C202.419 185.198 199.846 181.905 196.229 181.461C192.611 181.017 189.318 183.59 188.873 187.208C188.429 190.825 191.002 194.118 194.62 194.563Z" fill="#F2F2F2"/>
<path d="M201.975 188.816C202.414 185.243 199.802 181.9 196.229 181.461C192.655 181.022 189.312 183.634 188.873 187.208C188.691 188.696 189.103 190.258 189.85 191.559L201.975 188.816Z" fill="#CDD6E0"/>
<path d="M189.787 162.535C176.398 165.727 167.795 179.179 170.987 192.568L219.82 181.335C216.925 167.983 203.437 159.677 189.787 162.535Z" fill="#FF7058"/>
<path d="M170.574 191.006C169.916 179.137 178.19 168.365 190.315 165.622C202.142 162.843 214.099 168.845 219.146 179.439C219.182 179.141 218.921 178.807 218.958 178.509C216.225 171.222 210.26 165.653 202.962 163.548C202.664 163.512 202.105 163.141 201.807 163.104C201.509 163.068 200.914 162.995 200.616 162.958C199.723 162.848 198.532 162.702 197.639 162.592C196.447 162.446 195.518 162.634 194.327 162.488C194.029 162.451 194.029 162.451 193.731 162.415C192.801 162.603 191.574 162.754 190.644 162.943L190.346 162.906C177.03 165.503 168.834 178.098 170.574 191.006Z" fill="#FC6551"/>
</g>
<path fill-rule="evenodd" clip-rule="evenodd" d="M258 256C260.761 256 263 253.761 263 251C263 248.238 260.761 246 258 246C255.239 246 253 248.238 253 251C253 253.761 255.239 256 258 256Z" fill="#22A45D"/>
<path fill-rule="evenodd" clip-rule="evenodd" d="M141 77.9998C143.761 77.9998 146 75.7612 146 72.9998C146 70.2383 143.761 67.9998 141 67.9998C138.239 67.9998 136 70.2383 136 72.9998C136 75.7612 138.239 77.9998 141 77.9998Z" fill="#22A45D"/>
<path fill-rule="evenodd" clip-rule="evenodd" d="M15 87.9998C17.7614 87.9998 20 85.7612 20 82.9998C20 80.2383 17.7614 77.9998 15 77.9998C12.2386 77.9998 10 80.2383 10 82.9998C10 85.7612 12.2386 87.9998 15 87.9998Z" fill="#22A45D"/>
<path fill-rule="evenodd" clip-rule="evenodd" d="M35 198C37.7614 198 40 195.761 40 193C40 190.238 37.7614 188 35 188C32.2386 188 30 190.238 30 193C30 195.761 32.2386 198 35 198Z" fill="#22A45D"/>
<path fill-rule="evenodd" clip-rule="evenodd" d="M23.5 46.9998L30 53.4998L23.5 59.9998L17 53.4998L23.5 46.9998Z" fill="#FFD841"/>
<path fill-rule="evenodd" clip-rule="evenodd" d="M70.5 209L77 215.5L70.5 222L64 215.5L70.5 209Z" fill="#FFD841"/>
<path fill-rule="evenodd" clip-rule="evenodd" d="M269.5 222L276 228.5L269.5 235L263 228.5L269.5 222Z" fill="#FFD841"/>
<path fill-rule="evenodd" clip-rule="evenodd" d="M157.5 97.9998L164 104.5L157.5 111L151 104.5L157.5 97.9998Z" fill="#FFD841"/>
</svg>
