<svg width="28" height="28" viewBox="0 0 28 28" fill="none" xmlns="http://www.w3.org/2000/svg">
<rect width="28" height="28" rx="4" fill="white"/>
<path d="M14 10.2791C15.1392 10.2791 15.9076 10.7712 16.3458 11.1824L18.058 9.51068C17.0064 8.53325 15.638 7.93335 14 7.93335C11.6273 7.93335 9.57809 9.29497 8.58047 11.2767L10.542 12.8002C11.0341 11.3374 12.3957 10.2791 14 10.2791Z" fill="#EA4335"/>
<path d="M19.824 14.1348C19.824 13.636 19.7836 13.272 19.6959 12.8945H14V15.1459H17.3434C17.276 15.7054 16.912 16.548 16.1031 17.1142L18.0175 18.5972C19.1634 17.5389 19.824 15.9818 19.824 14.1348Z" fill="#4285F4"/>
<path d="M10.5488 15.1998C10.4207 14.8223 10.3465 14.4178 10.3465 13.9999C10.3465 13.5819 10.4207 13.1775 10.542 12.8L8.58041 11.2766C8.16928 12.099 7.93332 13.0225 7.93332 13.9999C7.93332 14.9773 8.16928 15.9008 8.58041 16.7231L10.5488 15.1998Z" fill="#FBBC05"/>
<path d="M14 20.0668C15.638 20.0668 17.0131 19.5275 18.0175 18.5973L16.1031 17.1143C15.5908 17.4716 14.9032 17.721 14 17.721C12.3957 17.721 11.0341 16.6627 10.5488 15.2L8.58719 16.7233C9.58481 18.7051 11.6272 20.0668 14 20.0668Z" fill="#34A853"/>
</svg>
